<svg width="24" height="24" viewBox="0 0 24 24" fill="none" xmlns="http://www.w3.org/2000/svg">
<path fill-rule="evenodd" clip-rule="evenodd" d="M3 4.5C3 3.67157 3.67157 3 4.5 3L19.5 3C20.3284 3 21 3.67157 21 4.5C21 5.32843 20.3284 6 19.5 6L4.5 6C3.67157 6 3 5.32843 3 4.5Z" fill="#2B3438"/>
<path fill-rule="evenodd" clip-rule="evenodd" d="M3 9.5C3 8.67157 3.71108 8 4.58824 8L19.4118 8C20.2889 8 21 8.67157 21 9.5C21 10.3284 20.2889 11 19.4118 11L4.58824 11C3.71108 11 3 10.3284 3 9.5Z" fill="#2B3438"/>
<path fill-rule="evenodd" clip-rule="evenodd" d="M17.6211 19.9965C17.0707 20.6157 16.1226 20.6715 15.5034 20.1211L12 17.0069L8.49653 20.1211C7.87736 20.6715 6.92925 20.6157 6.37887 19.9965C5.82849 19.3774 5.88426 18.4292 6.50344 17.8789L11.0034 13.8789C11.5718 13.3737 12.4282 13.3737 12.9965 13.8789L17.4965 17.8789C18.1157 18.4292 18.1715 19.3774 17.6211 19.9965Z" fill="#2B3438"/>
</svg>
