<svg width="24" height="24" viewBox="0 0 24 24" fill="none" xmlns="http://www.w3.org/2000/svg">
<path fill-rule="evenodd" clip-rule="evenodd" d="M13.1952 6.18356C13.7841 5.60098 14.7339 5.60617 15.3164 6.19515C15.899 6.78413 15.8938 7.73386 15.3048 8.31644L6.75 16.7674V17.75H7.73257L16.1836 9.19515C16.7661 8.60617 17.7159 8.60098 18.3048 9.18356C18.8938 9.76614 18.899 10.7159 18.3164 11.3048L9.42514 20.3048C9.14337 20.5897 8.75936 20.75 8.3587 20.75H5.25171C5.25114 20.75 5.25057 20.75 5.25 20.75C4.42157 20.75 3.75 20.0784 3.75 19.25V16.1413C3.75 15.7406 3.91029 15.3566 4.19515 15.0749L13.1952 6.18356Z" fill="#FCFCFD"/>
<path fill-rule="evenodd" clip-rule="evenodd" d="M13.1893 6.18932C13.7751 5.60354 14.7249 5.60354 15.3107 6.18932L18.3107 9.18932C18.8964 9.77511 18.8964 10.7249 18.3107 11.3106C17.7249 11.8964 16.7751 11.8964 16.1893 11.3106L13.1893 8.31064C12.6036 7.72486 12.6036 6.77511 13.1893 6.18932Z" fill="#FCFCFD"/>
<path fill-rule="evenodd" clip-rule="evenodd" d="M16.3107 3.31066C16.8965 2.72487 17.8462 2.72487 18.432 3.31066L21.432 6.31066C22.0178 6.89645 22.0178 7.84619 21.432 8.43198C20.8462 9.01777 19.8965 9.01777 19.3107 8.43198L16.3107 5.43198C15.7249 4.84619 15.7249 3.89645 16.3107 3.31066Z" fill="#FCFCFD"/>
</svg>
