<svg width="24" height="24" viewBox="0 0 24 24" fill="none" xmlns="http://www.w3.org/2000/svg">
<path fill-rule="evenodd" clip-rule="evenodd" d="M3 4.5C3 3.67157 3.67157 3 4.5 3L19.5 3C20.3284 3 21 3.67157 21 4.5C21 5.32843 20.3284 6 19.5 6L4.5 6C3.67157 6 3 5.32843 3 4.5Z" fill="#2B3438"/>
<path fill-rule="evenodd" clip-rule="evenodd" d="M3 9.5C3 8.67157 3.71108 8 4.58824 8L19.4118 8C20.2889 8 21 8.67157 21 9.5C21 10.3284 20.2889 11 19.4118 11L4.58824 11C3.71108 11 3 10.3284 3 9.5Z" fill="#2B3438"/>
<path fill-rule="evenodd" clip-rule="evenodd" d="M6.3789 14.0035C6.92928 13.3843 7.87739 13.3285 8.49656 13.8789L12 16.9931L15.5035 13.8789C16.1226 13.3285 17.0708 13.3843 17.6211 14.0035C18.1715 14.6226 18.1157 15.5708 17.4966 16.1211L12.9966 20.1211C12.4282 20.6263 11.5718 20.6263 11.0035 20.1211L6.50347 16.1211C5.8843 15.5708 5.82853 14.6226 6.3789 14.0035Z" fill="#2B3438"/>
</svg>
