<svg width="24" height="24" viewBox="0 0 24 24" fill="none" xmlns="http://www.w3.org/2000/svg">
<path fill-rule="evenodd" clip-rule="evenodd" d="M6 6V3C6 1.89543 6.89543 1 8 1C9.10457 1 10 1.89543 10 3V6C10 7.10457 9.10457 8 8 8C6.89543 8 6 7.10457 6 6Z" fill="#2B3438"/>
<path fill-rule="evenodd" clip-rule="evenodd" d="M14 6V3C14 1.89543 14.8954 1 16 1C17.1046 1 18 1.89543 18 3V6C18 7.10457 17.1046 8 16 8C14.8954 8 14 7.10457 14 6Z" fill="#2B3438"/>
<path fill-rule="evenodd" clip-rule="evenodd" d="M8 13C7.17157 13 6.5 12.3284 6.5 11.5C6.5 10.6716 7.17157 10 8 10H16C16.8284 10 17.5 10.6716 17.5 11.5C17.5 12.3284 16.8284 13 16 13H8Z" fill="#2B3438"/>
<path fill-rule="evenodd" clip-rule="evenodd" d="M8 18C7.17157 18 6.5 17.3284 6.5 16.5C6.5 15.6716 7.17157 15 8 15H16C16.8284 15 17.5 15.6716 17.5 16.5C17.5 17.3284 16.8284 18 16 18H8Z" fill="#2B3438"/>
<path fill-rule="evenodd" clip-rule="evenodd" d="M6 6.5C5.17157 6.5 4.5 7.17157 4.5 8V18C4.5 18.8284 5.17157 19.5 6 19.5H18C18.8284 19.5 19.5 18.8284 19.5 18V8C19.5 7.17157 18.8284 6.5 18 6.5H6ZM1.5 8C1.5 5.51472 3.51472 3.5 6 3.5H18C20.4853 3.5 22.5 5.51472 22.5 8V18C22.5 20.4853 20.4853 22.5 18 22.5H6C3.51472 22.5 1.5 20.4853 1.5 18V8Z" fill="#2B3438"/>
</svg>
