<svg width="24" height="24" viewBox="0 0 24 24" fill="none" xmlns="http://www.w3.org/2000/svg">
<path fill-rule="evenodd" clip-rule="evenodd" d="M12 19C15.866 19 19 15.866 19 12C19 8.13401 15.866 5 12 5C8.13401 5 5 8.13401 5 12C5 15.866 8.13401 19 12 19ZM12 22C17.5228 22 22 17.5228 22 12C22 6.47715 17.5228 2 12 2C6.47715 2 2 6.47715 2 12C2 17.5228 6.47715 22 12 22Z" fill="#2B3438"/>
<path fill-rule="evenodd" clip-rule="evenodd" d="M8.40342 16.5235C8.96867 17.1291 9.91786 17.1618 10.5235 16.5966L14 13.3518L14 7.5C14 6.67157 13.3284 6 12.5 6C11.6716 6 11 6.67157 11 7.5L11 12.0482L8.47653 14.4034C7.8709 14.9687 7.83817 15.9179 8.40342 16.5235Z" fill="#2B3438"/>
</svg>
