<svg width="24" height="24" viewBox="0 0 24 24" fill="none" xmlns="http://www.w3.org/2000/svg">
<path fill-rule="evenodd" clip-rule="evenodd" d="M3 6.5C3 5.67157 3.67157 5 4.5 5L19.5 5C20.3284 5 21 5.67157 21 6.5C21 7.32843 20.3284 8 19.5 8L4.5 8C3.67157 8 3 7.32843 3 6.5Z" fill="#FCFCFD"/>
<path fill-rule="evenodd" clip-rule="evenodd" d="M3 11.5C3 10.6716 3.71108 10 4.58824 10L19.4118 10C20.2889 10 21 10.6716 21 11.5C21 12.3284 20.2889 13 19.4118 13L4.58824 13C3.71108 13 3 12.3284 3 11.5Z" fill="#FCFCFD"/>
<path fill-rule="evenodd" clip-rule="evenodd" d="M3 16.5C3 15.6716 3.71108 15 4.58824 15L19.4118 15C20.2889 15 21 15.6716 21 16.5C21 17.3284 20.2889 18 19.4118 18L4.58824 18C3.71108 18 3 17.3284 3 16.5Z" fill="#FCFCFD"/>
</svg>
